<svg id="Layer_1" data-name="Layer 1" xmlns="http://www.w3.org/2000/svg" viewBox="0 0 50.66 50.66"><defs><style>.cls-1{fill:#fff;}</style></defs><title>Instagram</title><path class="cls-1" d="M25.33,4.57c6.76,0,7.56,0,10.23.14C42.43,5,45.63,8.28,46,15.1c.12,2.67.14,3.47.14,10.23s0,7.56-.14,10.23C45.63,42.37,42.43,45.63,35.56,46c-2.67.12-3.47.14-10.23.14s-7.57,0-10.24-.14C8.21,45.63,5,42.36,4.71,35.56c-.12-2.67-.15-3.47-.15-10.23s0-7.56.15-10.24C5,8.28,8.22,5,15.09,4.71,17.77,4.59,18.57,4.57,25.33,4.57Zm0-4.57c-6.88,0-7.74,0-10.44.15C5.69.57.58,5.68.15,14.88,0,17.59,0,18.45,0,25.33s0,7.74.15,10.44C.57,45,5.68,50.08,14.88,50.5c2.71.13,3.57.16,10.45.16s7.74,0,10.44-.16C45,50.08,50.09,45,50.5,35.77c.13-2.7.16-3.56.16-10.44s0-7.74-.16-10.44C50.09,5.7,45,.58,35.77.15,33.07,0,32.21,0,25.33,0Zm0,12.32a13,13,0,1,0,13,13A13,13,0,0,0,25.33,12.32Zm0,21.45a8.44,8.44,0,1,1,8.44-8.44A8.44,8.44,0,0,1,25.33,33.77Zm13.52-25a3,3,0,1,0,3,3A3,3,0,0,0,38.85,8.77Z"/></svg>